<?xml version="1.0" encoding="UTF-8"?>
<svg baseProfile="tiny" version="1.1" viewBox="0 0 181.1 60.1" xml:space="preserve" xmlns="http://www.w3.org/2000/svg">
<g fill="#2E679A">
	<path d="m1.1 2.1h2.6l3 8.4 2.9-8.4h2.6v10.7h-1.8v-8.2l-3 8.3h-1.5l-3-8.3v8.3h-1.8v-10.8z"/>
	<path d="m20.7 11.1c0 0.2 0 0.4 0.1 0.4 0.1 0.1 0.2 0.1 0.3 0.1h0.2s0.1 0 0.2 0v1.2c-0.1 0-0.1 0-0.2 0.1-0.1 0-0.2 0-0.3 0.1h-0.3-0.3c-0.3 0-0.6-0.1-0.9-0.2s-0.4-0.4-0.4-0.7c-0.3 0.3-0.8 0.6-1.3 0.7s-1 0.2-1.4 0.2c-0.3 0-0.7 0-1-0.1s-0.6-0.2-0.8-0.4-0.4-0.4-0.6-0.7c-0.1-0.3-0.2-0.6-0.2-1 0-0.5 0.1-0.9 0.3-1.2s0.4-0.5 0.7-0.7 0.6-0.3 1-0.4 0.7-0.1 1.1-0.2c0.3-0.1 0.6-0.1 0.9-0.1s0.5-0.1 0.7-0.1c0.2-0.1 0.4-0.2 0.5-0.3s0.2-0.3 0.2-0.6c0-0.2-0.1-0.4-0.2-0.5s-0.2-0.2-0.4-0.3-0.3-0.1-0.5-0.1h-0.5c-0.5 0-0.9 0.1-1.2 0.3-0.4 0.1-0.6 0.4-0.6 0.9h-1.7c0-0.5 0.2-0.9 0.4-1.2s0.5-0.6 0.8-0.8c0.3-0.3 0.7-0.4 1.1-0.5s0.8-0.1 1.3-0.1c0.4 0 0.8 0 1.1 0.1s0.7 0.2 1 0.4 0.5 0.4 0.7 0.7 0.3 0.6 0.3 1v4zm-1.7-2.1c-0.3 0.2-0.6 0.3-1 0.3s-0.8 0.1-1.1 0.2c-0.2 0-0.4 0.1-0.5 0.1-0.2 0.1-0.3 0.1-0.4 0.2s-0.2 0.2-0.3 0.4-0.1 0.3-0.1 0.6c0 0.2 0.1 0.3 0.2 0.5 0.1 0.1 0.2 0.2 0.4 0.3s0.3 0.1 0.5 0.2h0.5c0.2 0 0.4 0 0.6-0.1s0.4-0.1 0.6-0.3 0.4-0.3 0.5-0.5 0.2-0.4 0.2-0.7v-1.2z"/>
	<path d="m24.7 8.8-2.7-3.7h2l1.6 2.4 1.7-2.4h2l-2.6 3.6 3 4.2h-2.1l-2-2.9-1.9 2.9h-2l3-4.1z"/>
	<path d="m35 2.1h5.2c1 0 1.7 0.2 2.3 0.7s0.9 1.1 0.9 2c0 0.5-0.1 1-0.4 1.4s-0.6 0.7-1.1 0.9c0.7 0.1 1.2 0.5 1.5 0.9 0.3 0.5 0.5 1.1 0.5 1.8 0 0.4-0.1 0.8-0.2 1.2-0.2 0.4-0.4 0.7-0.7 0.9s-0.7 0.5-1.2 0.6c-0.5 0.2-1.1 0.2-1.8 0.2h-5v-10.6zm1.9 4.5h3.1c0.5 0 0.8-0.1 1.1-0.4s0.5-0.6 0.5-1.1-0.1-0.9-0.4-1.1-0.7-0.3-1.2-0.3h-3.1v2.9zm0 4.7h3.3c0.6 0 1-0.1 1.3-0.4s0.5-0.7 0.5-1.3c0-0.5-0.2-0.9-0.5-1.2s-0.7-0.4-1.3-0.4h-3.3v3.3z"/>
	<path d="m48.9 13.1c-0.6 0-1.2-0.1-1.7-0.3s-0.9-0.5-1.2-0.8c-0.3-0.4-0.6-0.8-0.8-1.3-0.1-0.6-0.2-1.1-0.2-1.7s0.1-1.1 0.3-1.6c0.1-0.6 0.4-1 0.7-1.4s0.7-0.6 1.2-0.8 1-0.3 1.7-0.3c0.6 0 1.2 0.1 1.7 0.3s0.9 0.5 1.2 0.8c0.3 0.4 0.6 0.8 0.8 1.3s0.3 1 0.3 1.6-0.1 1.1-0.3 1.6-0.4 0.9-0.8 1.3c-0.3 0.4-0.7 0.6-1.2 0.8-0.5 0.4-1.1 0.5-1.7 0.5zm0-1.4c0.4 0 0.7-0.1 1-0.2s0.5-0.4 0.7-0.6 0.3-0.6 0.4-0.9 0.1-0.7 0.1-1 0-0.7-0.1-1-0.2-0.6-0.4-0.9-0.4-0.5-0.7-0.6-0.6-0.2-1-0.2-0.7 0.1-1 0.2c-0.3 0.2-0.5 0.4-0.7 0.6-0.2 0.3-0.3 0.5-0.4 0.9s-0.1 0.7-0.1 1 0 0.7 0.1 1 0.2 0.6 0.4 0.9 0.4 0.5 0.7 0.6 0.6 0.2 1 0.2z"/>
	<path d="m53.5 5.1h1.3v-2.3h1.7v2.3h1.5v1.3h-1.5v4.1 0.5c0 0.1 0 0.2 0.1 0.3s0.1 0.2 0.2 0.2 0.3 0.1 0.5 0.1h0.4c0.1 0 0.2 0 0.4-0.1v1.3c-0.2 0-0.4 0-0.6 0.1h-0.6c-0.4 0-0.8 0-1.1-0.1s-0.5-0.2-0.6-0.4-0.3-0.4-0.3-0.6c-0.1-0.2-0.1-0.5-0.1-0.9v-4.5h-1.3v-1.3z"/>
	<path d="m59.2 2.1h1.8v4c0.2-0.3 0.5-0.6 0.9-0.9s0.9-0.4 1.4-0.4c0.8 0 1.5 0.2 2 0.7 0.5 0.4 0.7 1.1 0.7 2v5.3h-1.7v-4.8c0-0.6-0.2-1.1-0.4-1.3-0.2-0.3-0.6-0.4-1.1-0.4-0.3 0-0.6 0.1-0.8 0.2s-0.4 0.2-0.6 0.4-0.3 0.4-0.4 0.7v0.7 4.6h-1.7v-10.8z"/>
	<path d="m69.2 9.4c0 0.3 0 0.6 0.1 0.9s0.2 0.5 0.4 0.7 0.4 0.4 0.6 0.5 0.6 0.2 0.9 0.2c0.5 0 0.9-0.1 1.2-0.3s0.5-0.5 0.7-1h1.6c-0.1 0.4-0.2 0.8-0.5 1.1s-0.5 0.6-0.8 0.8-0.7 0.4-1 0.5c-0.4 0.1-0.8 0.2-1.2 0.2-0.6 0-1.2-0.1-1.6-0.3-0.5-0.2-0.9-0.5-1.2-0.8-0.3-0.4-0.6-0.8-0.7-1.3s-0.2-1-0.2-1.7c0-0.5 0.1-1.1 0.3-1.6s0.4-0.9 0.8-1.3c0.3-0.4 0.7-0.7 1.2-0.9s1-0.3 1.6-0.3 1.2 0.1 1.6 0.4c0.5 0.3 0.9 0.6 1.2 1s0.6 0.9 0.7 1.4 0.2 1.1 0.1 1.7h-5.8zm4-1.1c0-0.3-0.1-0.5-0.2-0.8-0.1-0.2-0.2-0.5-0.4-0.7s-0.4-0.3-0.6-0.5c-0.2-0.1-0.5-0.2-0.8-0.2s-0.6 0.1-0.8 0.2-0.5 0.2-0.6 0.4c-0.2 0.2-0.3 0.4-0.4 0.7s-0.2 0.6-0.2 0.9h4z"/>
</g>
<g fill="#2E679A">
	<path d="M2.6,22.1v9.5h5.7v1.2H1.2V22.1H2.6z"/>
	<path d="m11.8 33.9c-0.1 0.4-0.3 0.7-0.4 1s-0.3 0.5-0.5 0.6c-0.2 0.2-0.4 0.3-0.6 0.4-0.2 0-0.5 0.1-0.8 0.1h-0.5c-0.1 0-0.3-0.1-0.4-0.1v-1.2c0.1 0 0.2 0.1 0.4 0.1s0.3 0.1 0.4 0.1c0.3 0 0.5-0.1 0.7-0.2s0.3-0.3 0.4-0.5l0.5-1.3-3.1-7.7h1.4l2.3 6.3 2.2-6.3h1.3l-3.3 8.7z"/>
	<path d="m21.9 32.9v-1c-0.2 0.4-0.5 0.7-1 0.9-0.4 0.2-0.9 0.3-1.5 0.3s-1.1-0.1-1.6-0.3c-0.4-0.2-0.8-0.5-1.1-0.9s-0.5-0.8-0.7-1.3c-0.1-0.5-0.2-1-0.2-1.6 0-0.5 0.1-1.1 0.2-1.6s0.4-0.9 0.7-1.3 0.7-0.7 1.1-0.9 1-0.3 1.6-0.3c0.2 0 0.4 0 0.6 0.1s0.5 0.1 0.7 0.2 0.4 0.2 0.7 0.4c0.2 0.2 0.4 0.3 0.5 0.6v-4h1.3v10.7h-1.3zm-4.6-2.8c0.1 0.3 0.2 0.7 0.4 0.9 0.2 0.3 0.4 0.5 0.8 0.6 0.3 0.2 0.7 0.2 1.1 0.2s0.8-0.1 1.1-0.3 0.5-0.4 0.7-0.7 0.3-0.6 0.4-0.9c0.1-0.4 0.1-0.7 0.1-1.1s0-0.7-0.1-1.1-0.2-0.7-0.4-0.9c-0.2-0.3-0.4-0.5-0.8-0.7-0.3-0.2-0.7-0.2-1.1-0.2s-0.8 0.1-1.1 0.3-0.5 0.4-0.7 0.7-0.3 0.6-0.4 1-0.1 0.7-0.1 1.1 0 0.8 0.1 1.1z"/>
	<path d="m25.2 23.7v-1.6h1.3v1.6h-1.3zm1.3 1.4v7.8h-1.3v-7.8h1.3z"/>
	<path d="m35.3 32.8c-0.2 0.2-0.5 0.2-0.9 0.2-0.3 0-0.6-0.1-0.8-0.3s-0.3-0.5-0.3-0.9c-0.4 0.4-0.8 0.7-1.2 0.9-0.5 0.2-1 0.3-1.5 0.3-0.4 0-0.7 0-1-0.1s-0.6-0.2-0.8-0.4-0.4-0.4-0.5-0.7-0.2-0.6-0.2-1 0.1-0.8 0.2-1.1c0.2-0.3 0.3-0.5 0.6-0.7 0.2-0.2 0.5-0.3 0.8-0.4s0.6-0.2 1-0.2c0.3-0.1 0.7-0.1 1-0.2s0.6-0.1 0.8-0.2l0.6-0.3s0.2-0.3 0.2-0.5c0-0.3-0.1-0.5-0.2-0.7s-0.2-0.3-0.4-0.4-0.4-0.2-0.6-0.2h-0.6c-0.5 0-1 0.1-1.3 0.3-0.4 0.2-0.6 0.6-0.6 1.2h-1.3c0-0.5 0.1-0.9 0.3-1.2s0.4-0.6 0.7-0.8 0.6-0.4 1-0.4c0.4-0.1 0.8-0.1 1.2-0.1 0.3 0 0.7 0 1 0.1s0.7 0.2 0.9 0.3c0.3 0.2 0.5 0.4 0.7 0.7s0.3 0.6 0.3 1.1v4c0 0.3 0 0.5 0.1 0.7 0 0.1 0.2 0.2 0.4 0.2 0.1 0 0.2 0 0.4-0.1v0.9zm-2-4-0.6 0.3c-0.3 0.1-0.5 0.1-0.8 0.1s-0.6 0.1-0.9 0.1-0.6 0.1-0.8 0.2-0.4 0.2-0.6 0.4c-0.1 0.2-0.2 0.4-0.2 0.8 0 0.2 0 0.4 0.1 0.5s0.2 0.3 0.3 0.4 0.3 0.2 0.5 0.2 0.4 0.1 0.6 0.1c0.4 0 0.8-0.1 1.1-0.2s0.5-0.3 0.7-0.4c0.2-0.2 0.3-0.4 0.4-0.6s0.1-0.4 0.1-0.6v-1.3z"/>
	<path d="m40.6 28.1v1.2h-4.3v-1.2h4.3z"/>
	<path d="m47.6 22.1c1 0 1.8 0.2 2.4 0.8s0.9 1.2 0.9 2.1c0 0.7-0.1 1.2-0.4 1.7s-0.8 0.8-1.4 1c0.3 0.1 0.6 0.2 0.8 0.3s0.4 0.3 0.5 0.5 0.2 0.4 0.3 0.7 0.1 0.5 0.1 0.8v0.8c0 0.3 0 0.5 0.1 0.8 0 0.3 0.1 0.5 0.2 0.7l0.3 0.6h-1.6c-0.1-0.1-0.2-0.3-0.2-0.4 0-0.2-0.1-0.4-0.1-0.6v-0.8c0-0.3 0-0.5-0.1-0.8 0-0.3-0.1-0.5-0.2-0.7-0.2-0.4-0.2-0.6-0.4-0.7s-0.3-0.3-0.5-0.4-0.5-0.2-0.8-0.2h-3.5v4.6h-1.4v-10.8h5zm0.3 4.9c0.3-0.1 0.6-0.1 0.8-0.3 0.2-0.1 0.4-0.3 0.5-0.6s0.2-0.6 0.2-1c0-0.5-0.2-1-0.5-1.3s-0.8-0.5-1.5-0.5h-3.4v3.7h3c0.3 0.1 0.6 0.1 0.9 0z"/>
	<path d="m59.5 32.8c-0.2 0.2-0.5 0.2-0.9 0.2-0.3 0-0.6-0.1-0.8-0.3s-0.3-0.5-0.3-0.9c-0.4 0.4-0.8 0.7-1.2 0.9-0.5 0.2-1 0.3-1.5 0.3-0.4 0-0.7 0-1-0.1s-0.6-0.2-0.8-0.4-0.4-0.4-0.5-0.7-0.2-0.6-0.2-1 0.1-0.8 0.2-1.1 0.3-0.5 0.6-0.7c0.2-0.2 0.5-0.3 0.8-0.4s0.6-0.2 1-0.2c0.4-0.1 0.7-0.1 1-0.2 0.3 0 0.6-0.1 0.8-0.2l0.6-0.3c0.1-0.1 0.2-0.3 0.2-0.5 0-0.3-0.1-0.5-0.2-0.7s-0.2-0.3-0.4-0.4-0.4-0.2-0.6-0.2h-0.6c-0.5 0-1 0.1-1.4 0.3s-0.6 0.6-0.6 1.2h-1.3c0-0.5 0.1-0.9 0.3-1.2s0.4-0.6 0.7-0.8 0.6-0.4 1-0.4c0.4-0.1 0.8-0.1 1.2-0.1s0.7 0 1 0.1 0.7 0.2 0.9 0.3c0.3 0.2 0.5 0.4 0.7 0.7s0.3 0.6 0.3 1.1v4c0 0.3 0 0.5 0.1 0.7 0 0.1 0.2 0.2 0.4 0.2 0.1 0 0.2 0 0.4-0.1v0.9zm-2.1-4-0.6 0.3c-0.3 0.1-0.5 0.1-0.8 0.1s-0.6 0.1-0.9 0.1-0.5 0.1-0.8 0.2-0.4 0.2-0.6 0.4c-0.1 0.2-0.2 0.4-0.2 0.8 0 0.2 0 0.4 0.1 0.5s0.2 0.3 0.3 0.4 0.3 0.2 0.5 0.2 0.4 0.1 0.6 0.1c0.4 0 0.8-0.1 1.1-0.2s0.5-0.3 0.7-0.4c0.2-0.2 0.3-0.4 0.4-0.6s0.1-0.4 0.1-0.6v-1.3z"/>
	<path d="m62 22.1v4c0.2-0.4 0.5-0.7 1-0.9s0.9-0.3 1.5-0.3 1.1 0.1 1.6 0.3c0.4 0.2 0.8 0.5 1.1 0.9s0.5 0.8 0.7 1.3c0.1 0.5 0.2 1 0.2 1.6s-0.1 1.1-0.2 1.6-0.4 0.9-0.7 1.3-0.7 0.7-1.1 0.9-1 0.3-1.6 0.3c-0.2 0-0.4 0-0.6-0.1-0.2 0-0.5-0.1-0.7-0.2s-0.4-0.2-0.7-0.4-0.3-0.4-0.5-0.6v1h-1.3v-10.7h1.3zm4.6 5.8c-0.1-0.3-0.2-0.7-0.4-0.9-0.2-0.3-0.4-0.5-0.8-0.6-0.3-0.2-0.7-0.2-1.1-0.2s-0.8 0.1-1.1 0.3-0.5 0.4-0.7 0.7-0.3 0.6-0.4 0.9c-0.1 0.2-0.1 0.5-0.1 0.9s0 0.7 0.1 1.1 0.2 0.7 0.4 0.9c0.2 0.3 0.4 0.5 0.8 0.7 0.3 0.2 0.7 0.2 1.1 0.2s0.8-0.1 1.1-0.3 0.5-0.4 0.7-0.7 0.3-0.6 0.4-1 0.1-0.7 0.1-1.1c0-0.3 0-0.6-0.1-0.9z"/>
	<path d="m69.7 23.7v-1.6h1.3v1.6h-1.3zm1.2 1.4v7.8h-1.3v-7.8h1.3z"/>
	<path d="m74.1 25.1v1.2c0.5-0.9 1.4-1.4 2.5-1.4 0.5 0 0.9 0.1 1.3 0.2 0.3 0.1 0.6 0.3 0.8 0.6s0.4 0.5 0.4 0.9c0.1 0.3 0.1 0.7 0.1 1.1v5.1h-1.3v-5.2c0-0.5-0.1-0.9-0.4-1.1-0.1-0.3-0.5-0.5-1-0.5-0.4 0-0.7 0.1-1 0.2s-0.5 0.3-0.7 0.5-0.3 0.5-0.4 0.8-0.1 0.6-0.1 1v4.4h-1.3v-7.8h1.1z"/>
	<path d="m81.1 27.4c0.2-0.5 0.4-0.9 0.7-1.3s0.7-0.7 1.2-0.9 1-0.3 1.6-0.3 1.2 0.1 1.6 0.3c0.5 0.2 0.9 0.5 1.2 0.9s0.6 0.8 0.7 1.3c0.2 0.5 0.2 1 0.2 1.6s-0.1 1.1-0.2 1.6c-0.2 0.5-0.4 0.9-0.7 1.3s-0.7 0.6-1.2 0.9c-0.5 0.2-1 0.3-1.6 0.3s-1.1-0.1-1.6-0.3-0.9-0.5-1.2-0.9-0.6-0.8-0.7-1.3c-0.2-0.5-0.2-1-0.2-1.6s0-1.1 0.2-1.6zm1.3 2.8c0.1 0.4 0.3 0.7 0.5 0.9s0.5 0.4 0.8 0.6c0.3 0.1 0.6 0.2 0.9 0.2s0.6-0.1 0.9-0.2 0.6-0.3 0.8-0.6c0.2-0.2 0.4-0.5 0.5-0.9s0.2-0.7 0.2-1.2-0.1-0.9-0.2-1.3-0.3-0.7-0.5-0.9-0.5-0.4-0.8-0.6-0.6-0.2-0.9-0.2-0.6 0.1-0.9 0.2-0.6 0.3-0.8 0.6-0.4 0.6-0.5 0.9c-0.1 0.4-0.2 0.8-0.2 1.3s0 0.9 0.2 1.2z"/>
	<path d="m96.2 32.9-1.6-6.2-1.6 6.2h-1.4l-2.5-7.8h1.4l1.8 6.3 1.6-6.3h1.4l1.6 6.3 1.7-6.3h1.3l-2.5 7.8h-1.2z"/>
	<path d="m101.3 23.7v-1.6h1.3v1.6h-1.3zm1.3 1.4v7.8h-1.3v-7.8h1.3z"/>
	<path d="m107.9 25.1v1.1h-1.5v4.8 0.4c0 0.1 0.1 0.2 0.1 0.2 0.1 0 0.2 0.1 0.3 0.1h0.5 0.6v1.1h-1c-0.3 0-0.6 0-0.8-0.1s-0.4-0.1-0.6-0.2c-0.1-0.1-0.3-0.3-0.3-0.5-0.1-0.2-0.1-0.5-0.1-0.9v-4.9h-1.3v-1.1h1.3v-2.3h1.3v2.3h1.5z"/>
	<path d="m110.3 31.1c0.1 0.2 0.3 0.3 0.5 0.5 0.2 0.1 0.4 0.2 0.7 0.2s0.5 0.1 0.8 0.1h0.6c0.2 0 0.4-0.1 0.6-0.2s0.3-0.2 0.5-0.4c0.1-0.2 0.2-0.4 0.2-0.6 0-0.3-0.1-0.6-0.4-0.8s-0.6-0.3-0.9-0.4l-1.2-0.3s-0.8-0.2-1.2-0.4-0.7-0.4-0.9-0.7-0.4-0.7-0.4-1.2c0-0.4 0.1-0.7 0.3-1s0.4-0.5 0.7-0.7 0.6-0.3 0.9-0.4 0.7-0.1 1-0.1c0.4 0 0.8 0 1.2 0.1s0.7 0.2 1 0.4 0.5 0.4 0.7 0.8c0.2 0.3 0.3 0.7 0.3 1.2h-1.3c0-0.2-0.1-0.5-0.2-0.6-0.1-0.2-0.3-0.3-0.4-0.4-0.2-0.1-0.4-0.2-0.6-0.2s-0.6 0-0.8 0h-0.6c-0.2 0-0.4 0.1-0.5 0.2s-0.3 0.2-0.4 0.3-0.1 0.3-0.1 0.5 0.1 0.4 0.2 0.5c0.2 0.1 0.4 0.3 0.6 0.4s0.5 0.2 0.8 0.2c0.3 0.1 0.6 0.1 0.9 0.2s0.6 0.2 0.9 0.3 0.6 0.2 0.8 0.4l0.6 0.6c0.1 0.2 0.2 0.6 0.2 0.9 0 0.5-0.1 0.9-0.3 1.2s-0.5 0.6-0.8 0.8-0.7 0.3-1.1 0.4-0.8 0.1-1.2 0.1-0.8 0-1.2-0.1-0.7-0.2-1-0.4-0.5-0.5-0.7-0.8-0.3-0.7-0.3-1.2h1.3c0 0.2 0 0.4 0.2 0.6z"/>
	<path d="m121.4 26.4c-0.3-0.3-0.8-0.4-1.3-0.4s-0.8 0.1-1.2 0.3c-0.3 0.2-0.6 0.4-0.7 0.7-0.2 0.3-0.3 0.6-0.4 1s-0.1 0.7-0.1 1.1 0 0.7 0.1 1 0.2 0.6 0.4 0.9 0.4 0.5 0.7 0.6c0.3 0.2 0.6 0.2 1 0.2 0.6 0 1.1-0.2 1.5-0.5s0.6-0.8 0.7-1.4h1.3c-0.1 1-0.5 1.7-1.1 2.2s-1.4 0.8-2.3 0.8c-0.6 0-1.1-0.1-1.6-0.3s-0.8-0.5-1.1-0.8-0.5-0.8-0.7-1.3-0.2-1-0.2-1.6 0.1-1.1 0.2-1.6c0.2-0.5 0.4-0.9 0.7-1.3s0.7-0.7 1.1-0.9 1-0.3 1.6-0.3c0.4 0 0.9 0.1 1.2 0.2 0.4 0.1 0.7 0.3 1 0.5s0.5 0.5 0.7 0.8 0.3 0.7 0.4 1.2h-1.3c0-0.4-0.3-0.8-0.6-1.1z"/>
	<path d="m126.1 22.1v4.1c0.1-0.2 0.2-0.4 0.4-0.6s0.4-0.3 0.6-0.4 0.5-0.2 0.7-0.2 0.5-0.1 0.7-0.1c0.5 0 0.9 0.1 1.3 0.2 0.3 0.1 0.6 0.3 0.8 0.6s0.4 0.5 0.4 0.9c0.1 0.3 0.1 0.7 0.1 1.1v5.1h-1.1v-5.2c0-0.5-0.1-0.9-0.4-1.1-0.3-0.3-0.7-0.4-1.2-0.4-0.4 0-0.7 0.1-1 0.2s-0.5 0.3-0.7 0.5-0.3 0.5-0.4 0.8-0.1 0.6-0.1 1v4.4h-1.3v-10.9h1.2z"/>
	<path d="m137.3 28.1v1.2h-4.3v-1.2h4.3z"/>
	<path d="m144.6 23.6c-0.5-0.3-1.1-0.5-1.8-0.5-0.3 0-0.6 0-0.9 0.1s-0.5 0.2-0.8 0.3c-0.2 0.1-0.4 0.3-0.5 0.6-0.1 0.2-0.2 0.5-0.2 0.9 0 0.3 0.1 0.6 0.3 0.8s0.5 0.4 0.8 0.5 0.7 0.2 1.1 0.3 0.8 0.2 1.3 0.3c0.4 0.1 0.8 0.2 1.3 0.4s0.8 0.3 1.1 0.5 0.6 0.5 0.8 0.9c0.2 0.3 0.3 0.8 0.3 1.3 0 0.6-0.1 1.1-0.4 1.5s-0.6 0.7-1 1-0.8 0.4-1.3 0.6c-0.5 0.1-1 0.2-1.5 0.2-0.6 0-1.2-0.1-1.7-0.2-0.5-0.2-1-0.4-1.4-0.7s-0.7-0.7-1-1.2c-0.2-0.5-0.4-1-0.4-1.7h1.3c0 0.5 0.1 0.8 0.3 1.2s0.4 0.6 0.7 0.8 0.6 0.4 1 0.5 0.8 0.1 1.2 0.1c0.3 0 0.6 0 1-0.1 0.3-0.1 0.6-0.2 0.9-0.3s0.5-0.3 0.6-0.6 0.2-0.6 0.2-1-0.1-0.7-0.3-0.9-0.5-0.4-0.8-0.6-0.7-0.3-1.1-0.4-0.8-0.2-1.3-0.3-0.8-0.2-1.3-0.3c-0.4-0.1-0.8-0.3-1.1-0.5s-0.6-0.5-0.8-0.8-0.3-0.7-0.3-1.2 0.1-1 0.3-1.4 0.5-0.7 0.9-1 0.8-0.4 1.2-0.6 0.9-0.2 1.4-0.2 1.1 0.1 1.5 0.2c0.5 0.1 0.9 0.3 1.2 0.6 0.4 0.3 0.6 0.6 0.8 1.1 0.2 0.4 0.3 0.9 0.3 1.5h-1.4c0.2-0.8 0-1.3-0.5-1.7z"/>
	<path d="m152.1 25.1v1.1h-1.5v4.8 0.4c0 0.1 0.1 0.2 0.1 0.2 0.1 0 0.2 0.1 0.3 0.1h0.5 0.6v1.1h-1c-0.3 0-0.6 0-0.8-0.1-0.2 0-0.4-0.1-0.6-0.2s-0.3-0.3-0.3-0.5-0.1-0.5-0.1-0.9v-4.9h-1.3v-1.1h1.3v-2.3h1.3v2.3h1.5z"/>
	<path d="m154.6 25.1v1.6c0.3-0.6 0.7-1.1 1.1-1.4 0.5-0.3 1-0.4 1.7-0.4v1.3c-0.5 0-0.9 0.1-1.3 0.2s-0.6 0.3-0.9 0.6c-0.2 0.3-0.4 0.6-0.5 1s-0.2 0.8-0.2 1.3v3.4h-1.3v-7.8h1.4z"/>
	<path d="m159 31.2v1.7h-1.7v-1.7h1.7z"/>
	<path d="m168.5 32.9v-7.6h-2.8v-1c0.4 0 0.7 0 1-0.1s0.6-0.2 0.9-0.3 0.5-0.4 0.7-0.6c0.2-0.3 0.3-0.6 0.4-1h1v10.6h-1.2z"/>
	<path d="m173.5 26.4c0-0.4 0.1-0.8 0.2-1.2s0.2-0.8 0.3-1.1c0.1-0.4 0.4-0.7 0.6-0.9 0.3-0.3 0.6-0.5 1-0.6 0.4-0.2 0.9-0.2 1.4-0.2s1 0.1 1.4 0.2c0.4 0.2 0.7 0.4 1 0.6s0.5 0.6 0.6 0.9c0.2 0.4 0.3 0.7 0.3 1.1 0.1 0.4 0.1 0.8 0.1 1.2v1.2 1.2s-0.1 0.8-0.1 1.2c-0.1 0.4-0.2 0.8-0.3 1.1-0.2 0.4-0.4 0.7-0.6 0.9-0.3 0.3-0.6 0.5-1 0.6-0.4 0.2-0.9 0.2-1.4 0.2s-1-0.1-1.4-0.2c-0.4-0.2-0.7-0.4-1-0.6-0.3-0.3-0.5-0.6-0.6-0.9-0.2-0.4-0.3-0.7-0.3-1.1-0.1-0.4-0.1-0.8-0.2-1.2v-1.2c-0.1-0.4-0.1-0.8 0-1.2zm1.3 2.6c0 0.5 0.1 1 0.2 1.4s0.4 0.8 0.7 1.1 0.7 0.4 1.3 0.4 1-0.1 1.3-0.4 0.5-0.7 0.7-1.1c0.1-0.4 0.2-0.9 0.2-1.4v-1.3-0.9c0-0.3 0-0.6-0.1-0.9 0-0.3-0.1-0.6-0.2-0.9s-0.2-0.6-0.4-0.8-0.4-0.4-0.6-0.5-0.6-0.2-0.9-0.2-0.7 0.1-0.9 0.2-0.5 0.3-0.6 0.5c-0.2 0.2-0.3 0.5-0.4 0.8s-0.1 0.6-0.2 0.9c0 0.3-0.1 0.6-0.1 0.9v0.9 1.3z"/>
</g>
<g fill="#2E679A">
	<path d="m4.1 52.9v-7.6h-2.8v-1c0.4 0 0.7 0 1.1-0.1 0.3-0.1 0.6-0.2 0.9-0.4s0.5-0.4 0.7-0.6 0.3-0.6 0.4-1h1v10.6h-1.3z"/>
	<path d="m9 46.4c0-0.4 0.1-0.8 0.2-1.2s0.2-0.8 0.3-1.1c0.1-0.4 0.4-0.7 0.6-0.9 0.3-0.3 0.6-0.5 1-0.6 0.4-0.2 0.9-0.2 1.4-0.2s1 0.1 1.4 0.2c0.4 0.2 0.7 0.4 1 0.6 0.3 0.3 0.5 0.6 0.6 0.9 0.1 0.4 0.3 0.7 0.3 1.1s0.2 0.8 0.2 1.2v1.2 1.2s-0.1 0.8-0.1 1.2c-0.1 0.4-0.2 0.8-0.3 1.1-0.2 0.4-0.4 0.7-0.6 0.9-0.3 0.3-0.6 0.5-1 0.6-0.4 0.2-0.9 0.2-1.4 0.2s-1-0.1-1.4-0.2c-0.4-0.2-0.7-0.4-1-0.6-0.3-0.3-0.5-0.6-0.6-0.9-0.2-0.4-0.3-0.7-0.3-1.1-0.2-0.3-0.3-0.7-0.3-1.1s0-0.8 0-1.2v-1.3zm1.4 2.6c0 0.5 0.1 1 0.2 1.4s0.4 0.8 0.7 1.1 0.7 0.4 1.3 0.4 1-0.1 1.3-0.4 0.5-0.7 0.7-1.1c0.1-0.4 0.2-0.9 0.2-1.4v-1.3-0.9c0-0.3 0-0.6-0.1-0.9 0-0.3-0.1-0.6-0.2-0.9s-0.2-0.6-0.4-0.8-0.4-0.4-0.6-0.5-0.6-0.2-0.9-0.2c-0.4 0-0.7 0.1-0.9 0.2s-0.5 0.3-0.6 0.5-0.3 0.5-0.4 0.8-0.2 0.6-0.2 0.9-0.1 0.6-0.1 0.9v0.9c-0.1 0.3-0.1 0.8 0 1.3z"/>
	<path d="m19.4 43.5-0.6 3.1c0.2-0.3 0.5-0.5 0.9-0.6s0.7-0.2 1.1-0.2c0.5 0 0.9 0.1 1.3 0.2s0.8 0.4 1.1 0.7 0.6 0.7 0.7 1.1 0.3 1 0.3 1.6c0 0.4-0.1 0.9-0.2 1.3-0.2 0.4-0.4 0.8-0.7 1.1s-0.7 0.6-1.2 0.8-1 0.3-1.6 0.3c-0.5 0-0.9-0.1-1.3-0.2s-0.8-0.3-1.1-0.6-0.6-0.6-0.7-1c-0.2-0.4-0.3-0.8-0.3-1.3h1.3c0 0.3 0.1 0.5 0.2 0.8 0.1 0.2 0.3 0.4 0.5 0.6s0.4 0.3 0.7 0.4 0.6 0.1 0.9 0.1 0.6-0.1 0.9-0.2 0.5-0.3 0.7-0.5 0.4-0.5 0.5-0.8 0.2-0.7 0.2-1.1c0-0.3-0.1-0.7-0.2-1s-0.3-0.6-0.5-0.8-0.5-0.4-0.8-0.5-0.6-0.2-1-0.2-0.8 0.1-1.1 0.3-0.6 0.4-0.9 0.7l-1.1-0.1 1-5.5h5.2v1.1h-4.2z"/>
	<path d="m27.8 43.5-0.6 3.1c0.2-0.3 0.5-0.5 0.9-0.6s0.7-0.2 1.1-0.2c0.5 0 0.9 0.1 1.3 0.2 0.4 0.2 0.8 0.4 1.1 0.7s0.6 0.7 0.7 1.1c0.2 0.5 0.3 1 0.3 1.6 0 0.4-0.1 0.9-0.2 1.3-0.2 0.4-0.4 0.8-0.7 1.1s-0.7 0.6-1.2 0.8-1 0.3-1.6 0.3c-0.5 0-0.9-0.1-1.3-0.2s-0.8-0.3-1.1-0.6-0.6-0.6-0.7-1c-0.2-0.4-0.3-0.8-0.3-1.3h1.3c0 0.3 0.1 0.5 0.2 0.8 0.1 0.2 0.3 0.4 0.5 0.6s0.4 0.3 0.7 0.4 0.6 0.1 0.9 0.1 0.6-0.1 0.9-0.2 0.5-0.3 0.7-0.5 0.4-0.5 0.5-0.8 0.2-0.7 0.2-1.1c0-0.3-0.1-0.7-0.2-1s-0.3-0.6-0.5-0.8-0.5-0.4-0.8-0.5-0.6-0.2-1-0.2-0.8 0.1-1.1 0.3-0.6 0.4-0.9 0.7l-1.1-0.1 1-5.5h5.2v1.1h-4.2z"/>
	<path d="m39.5 45.4c-0.5 0.7-0.9 1.5-1.3 2.3s-0.7 1.7-0.9 2.6-0.4 1.7-0.4 2.6h-1.4c0.1-0.9 0.2-1.8 0.4-2.6 0.2-0.9 0.5-1.7 0.9-2.5s0.8-1.5 1.3-2.2 1-1.3 1.6-1.9h-5.6v-1.2h6.9v1.1c-0.5 0.4-1.1 1.1-1.5 1.8z"/>
	<path d="m50.9 42.1h0.7 0.8c0.3 0 0.5 0.1 0.7 0.1 0.2 0.1 0.4 0.1 0.6 0.2 0.4 0.2 0.6 0.5 0.9 0.9 0.2 0.4 0.4 0.8 0.4 1.4s-0.1 1.1-0.4 1.5-0.7 0.7-1.2 0.9c0.7 0.1 1.2 0.4 1.5 0.9 0.4 0.5 0.5 1 0.5 1.7 0 0.4-0.1 0.8-0.2 1.1-0.1 0.4-0.3 0.7-0.6 1s-0.6 0.5-1 0.7-0.9 0.3-1.4 0.3h-5.2v-10.7h3.9zm0.4 4.6c0.8 0 1.4-0.1 1.7-0.4 0.4-0.3 0.5-0.7 0.5-1.3 0-0.4-0.1-0.7-0.2-0.9s-0.3-0.4-0.5-0.5-0.5-0.2-0.7-0.2c-0.3 0-0.6-0.1-0.9-0.1h-2.9v3.4h3zm0.7 5c0.6 0 1.1-0.2 1.5-0.5s0.5-0.8 0.5-1.4c0-0.3-0.1-0.6-0.2-0.9-0.1-0.2-0.3-0.4-0.5-0.5s-0.5-0.2-0.7-0.3c-0.3-0.1-0.6-0.1-0.9-0.1h-3.3v3.7h3.6z"/>
	<path d="m62.6 52.4c-0.6 0.4-1.3 0.6-2.2 0.6-0.6 0-1.2-0.1-1.6-0.3s-0.8-0.5-1.1-0.8-0.5-0.8-0.7-1.3-0.2-1-0.3-1.6c0-0.6 0.1-1.1 0.3-1.6s0.4-0.9 0.8-1.3c0.3-0.4 0.7-0.6 1.2-0.8 0.4-0.2 0.9-0.3 1.5-0.3 0.7 0 1.3 0.1 1.7 0.4 0.5 0.3 0.8 0.6 1.1 1.1 0.3 0.4 0.5 0.9 0.6 1.4s0.1 1 0.1 1.5h-6c0 0.3 0 0.7 0.1 1s0.2 0.6 0.4 0.8 0.5 0.4 0.8 0.6 0.7 0.2 1.1 0.2c0.5 0 1-0.1 1.3-0.4 0.3-0.2 0.6-0.6 0.7-1.1h1.3c-0.2 0.8-0.5 1.4-1.1 1.9zm-0.3-5c-0.1-0.3-0.3-0.5-0.5-0.7s-0.4-0.3-0.7-0.5c-0.3-0.1-0.6-0.2-0.9-0.2s-0.6 0.1-0.9 0.2-0.5 0.3-0.7 0.5-0.3 0.4-0.4 0.7-0.2 0.5-0.2 0.8h4.5c0-0.3-0.1-0.6-0.2-0.8z"/>
	<path d="m66.3 45.1v1.6c0.3-0.6 0.7-1.1 1.1-1.4 0.5-0.3 1-0.4 1.7-0.4v1.3c-0.5 0-0.9 0.1-1.3 0.2s-0.7 0.3-0.9 0.6-0.4 0.6-0.5 1-0.2 0.8-0.2 1.3v3.4h-1.3v-7.8h1.4z"/>
	<path d="m71.5 42.1v10.7h-1.3v-10.7h1.3z"/>
	<path d="m73.6 43.7v-1.6h1.3v1.6h-1.3zm1.2 1.4v7.8h-1.3v-7.8h1.3z"/>
	<path d="m78 45.1v1.2c0.5-0.9 1.4-1.4 2.5-1.4 0.5 0 0.9 0.1 1.3 0.2 0.3 0.1 0.6 0.3 0.8 0.6s0.4 0.5 0.4 0.9c0.1 0.3 0.1 0.7 0.1 1.1v5.1h-1.1v-5.2c0-0.5-0.1-0.9-0.4-1.1-0.3-0.3-0.7-0.4-1.2-0.4-0.4 0-0.7 0.1-1 0.2s-0.5 0.3-0.7 0.5-0.3 0.5-0.4 0.8-0.1 0.6-0.1 1v4.4h-1.3v-7.8h1.1z"/>
	<path d="m87.1 51.2v1.5c0 0.6-0.1 1.1-0.4 1.5s-0.7 0.7-1.3 0.9v-0.8c0.2-0.1 0.3-0.1 0.4-0.3 0.1-0.1 0.2-0.2 0.3-0.4 0.1-0.1 0.1-0.3 0.1-0.4v-0.4h-0.9v-1.7h1.8z"/>
	<path d="m100.2 52.7c-0.6 0.2-1.2 0.4-1.9 0.4-0.8 0-1.5-0.1-2.1-0.4s-1.2-0.7-1.6-1.2-0.8-1.1-1-1.7c-0.2-0.7-0.3-1.3-0.3-2 0-0.8 0.1-1.5 0.3-2.2s0.5-1.3 1-1.9 1-1 1.6-1.3 1.4-0.5 2.2-0.5c0.6 0 1.1 0.1 1.6 0.2s1 0.3 1.4 0.6 0.7 0.7 1 1.1 0.5 1 0.6 1.6h-1.4c-0.1-0.4-0.2-0.8-0.4-1.1s-0.4-0.5-0.7-0.7-0.6-0.3-1-0.4-0.7-0.1-1.1-0.1c-0.7 0-1.2 0.1-1.7 0.4s-0.8 0.6-1.1 1-0.5 0.9-0.7 1.5c-0.1 0.5-0.2 1.1-0.2 1.7s0.1 1.1 0.2 1.6c0.2 0.5 0.4 1 0.7 1.4s0.7 0.7 1.1 0.9c0.5 0.2 1 0.4 1.6 0.4s1.1-0.1 1.5-0.3 0.8-0.4 1.1-0.7 0.5-0.7 0.7-1.1c0.1-0.4 0.2-0.9 0.2-1.4h-3.4v-1.2h4.7v5.6h-0.9l-0.4-1.3c-0.5 0.5-1 0.9-1.6 1.1z"/>
	<path d="m110.4 52.4c-0.6 0.4-1.3 0.7-2.2 0.7-0.6 0-1.2-0.1-1.6-0.3s-0.8-0.5-1.1-0.8-0.5-0.8-0.7-1.3-0.2-1-0.3-1.6c0-0.6 0.1-1.1 0.3-1.6s0.4-0.9 0.8-1.3c0.3-0.4 0.7-0.6 1.2-0.8 0.4-0.2 0.9-0.3 1.5-0.3 0.7 0 1.3 0.1 1.7 0.4s0.8 0.6 1.1 1.1c0.3 0.4 0.5 0.9 0.6 1.4s0.1 1 0.1 1.5h-5.8c0 0.3 0 0.7 0.1 1s0.2 0.6 0.4 0.8 0.5 0.4 0.8 0.6c0.3 0.1 0.7 0.2 1.1 0.2 0.5 0 1-0.1 1.3-0.4s0.6-0.6 0.7-1.1h1.3c-0.4 0.7-0.8 1.3-1.3 1.8zm-0.3-5c-0.1-0.3-0.3-0.5-0.5-0.7s-0.4-0.3-0.7-0.5c-0.3-0.1-0.6-0.2-0.9-0.2s-0.6 0.1-0.9 0.2-0.5 0.3-0.7 0.5-0.3 0.4-0.5 0.7c-0.1 0.3-0.2 0.5-0.2 0.8h4.5c0-0.3 0-0.6-0.1-0.8z"/>
	<path d="m114.1 45.1v1.6c0.3-0.6 0.7-1.1 1.1-1.4 0.5-0.3 1-0.4 1.7-0.4v1.3c-0.5 0-0.9 0.1-1.3 0.2s-0.7 0.3-0.9 0.6-0.4 0.6-0.5 1-0.2 0.8-0.2 1.3v3.4h-1.3v-7.8h1.4z"/>
	<path d="m119.1 45.1v1.1c0.6-0.9 1.4-1.3 2.5-1.3 0.5 0 0.9 0.1 1.3 0.3s0.7 0.5 0.8 1c0.3-0.4 0.6-0.7 1-1s0.9-0.3 1.4-0.3c0.4 0 0.7 0 1.1 0.1 0.3 0.1 0.6 0.2 0.8 0.4s0.4 0.4 0.5 0.7 0.2 0.6 0.2 1v5.7h-1.3v-5.1c0-0.2 0-0.5-0.1-0.7 0-0.2-0.1-0.4-0.2-0.5-0.1-0.2-0.3-0.3-0.5-0.4s-0.4-0.1-0.8-0.1c-0.6 0-1.1 0.2-1.5 0.5s-0.3 0.9-0.3 1.5v4.8h-1.3v-5.1c0-0.2 0-0.5-0.1-0.7 0-0.2-0.1-0.4-0.2-0.5-0.1-0.2-0.3-0.3-0.4-0.4-0.2-0.1-0.4-0.1-0.7-0.1-0.4 0-0.7 0.1-1 0.2s-0.5 0.3-0.6 0.5c-0.2 0.2-0.3 0.4-0.4 0.7s-0.1 0.4-0.1 0.6v4.8h-1.3v-7.8h1.2z"/>
	<path d="m137.6 52.8c-0.2 0.1-0.5 0.2-0.9 0.2-0.3 0-0.6-0.1-0.8-0.3s-0.3-0.5-0.3-0.9c-0.4 0.4-0.8 0.7-1.2 0.9-0.5 0.2-1 0.3-1.5 0.3-0.4 0-0.7 0-1-0.1s-0.6-0.2-0.8-0.4-0.4-0.4-0.5-0.7-0.2-0.6-0.2-1 0.1-0.8 0.2-1.1c0.2-0.3 0.3-0.5 0.6-0.7 0.2-0.2 0.5-0.3 0.8-0.4s0.6-0.2 1-0.2c0.3-0.1 0.7-0.1 1-0.2 0.3 0 0.6-0.1 0.8-0.2l0.6-0.3c0.1-0.1 0.2-0.3 0.2-0.5 0-0.3-0.1-0.5-0.2-0.7s-0.2-0.3-0.4-0.4-0.4-0.2-0.6-0.2h-0.6c-0.5 0-1 0.1-1.3 0.3s-0.6 0.6-0.6 1.2h-1.3c0-0.5 0.1-0.9 0.3-1.2s0.4-0.6 0.7-0.8 0.6-0.4 1-0.4c0.4-0.1 0.8-0.1 1.2-0.1 0.3 0 0.7 0 1 0.1 0.3 0 0.7 0.2 0.9 0.3 0.3 0.2 0.5 0.4 0.7 0.7s0.3 0.6 0.3 1.1v4c0 0.3 0 0.5 0.1 0.7 0 0.1 0.2 0.2 0.4 0.2 0.1 0 0.2 0 0.4-0.1v0.9zm-2.1-3.9-0.6 0.3c-0.3 0.1-0.5 0.1-0.8 0.1s-0.6 0.1-0.9 0.1-0.5 0.1-0.8 0.2-0.4 0.2-0.6 0.4-0.2 0.4-0.2 0.8c0 0.2 0 0.4 0.1 0.5s0.2 0.3 0.3 0.4 0.3 0.2 0.5 0.2 0.4 0.1 0.6 0.1c0.4 0 0.8-0.1 1.1-0.2s0.5-0.3 0.7-0.4c0.2-0.2 0.3-0.4 0.4-0.6s0.1-0.4 0.1-0.6v-1.3z"/>
	<path d="m140 45.1v1.2c0.5-0.9 1.4-1.4 2.5-1.4 0.5 0 0.9 0.1 1.3 0.2 0.3 0.1 0.6 0.3 0.8 0.6 0.2 0.2 0.4 0.5 0.4 0.9 0.1 0.3 0.1 0.7 0.1 1.1v5.1h-1.3v-5.2c0-0.5-0.1-0.9-0.4-1.1-0.3-0.3-0.7-0.4-1.2-0.4-0.4 0-0.7 0.1-1 0.2s-0.5 0.3-0.7 0.5-0.3 0.5-0.4 0.8-0.1 0.6-0.1 1v4.4h-1.3v-7.8h1.3z"/>
	<path d="m150.2 53.9c-0.1 0.4-0.3 0.7-0.4 1s-0.3 0.5-0.5 0.6c-0.2 0.2-0.4 0.3-0.6 0.4s-0.5 0.1-0.7 0.1h-0.5c-0.1 0-0.3-0.1-0.4-0.1v-1.2c0.1 0 0.2 0.1 0.4 0.1 0.1 0 0.3 0.1 0.4 0.1 0.3 0 0.5-0.1 0.7-0.2s0.3-0.3 0.4-0.5l0.5-1.3-3.1-7.7h1.4l2.3 6.3 2.2-6.3h1.3l-3.4 8.7z"/>
</g>
</svg>
