<?xml version="1.0" encoding="UTF-8" standalone="no"?>
<!DOCTYPE svg  PUBLIC '-//W3C//DTD SVG 1.1//EN'  'http://www.w3.org/Graphics/SVG/1.1/DTD/svg11.dtd'>
<svg id="Layer_1" xmlns="http://www.w3.org/2000/svg" xml:space="preserve" viewBox="0 0 947.9 596.9" version="1.1" y="0px" x="0px" xmlns:xlink="http://www.w3.org/1999/xlink" enable-background="new 0 0 947.9 596.9">
		<path d="m154.4 379.4h-0.4c-1.1-0.2-1.8-1.3-1.5-2.4l39.7-179c0.2-1.1 1.3-1.8 2.4-1.5 1.1 0.2 1.8 1.3 1.5 2.4l-39.8 178.9c-0.1 1-1 1.6-1.9 1.6z" fill="#eee"/>
		<circle cy="377.4" cx="154.4" r="7.5" fill="#eee"/>
		<circle cy="198.5" cx="194.2" r="7.5" fill="#eee"/>
		<path d="m154.4 379.4c-1.1 0-1.9-0.8-2-1.9s0.8-2 1.9-2.1l151.5-7.8c1.1-0.1 2 0.8 2.1 1.9s-0.8 2-1.9 2.1l-151.5 7.8h-0.1z" fill="#eee"/>
		<circle cy="377.4" cx="154.4" r="7.5" fill="#eee"/>
		<circle cy="369.6" cx="305.9" r="7.5" fill="#eee"/>
		<path d="m293.5 481.5h-0.2c-1.1-0.1-1.9-1.1-1.8-2.2l12.5-109.9c0.1-1.1 1.1-1.9 2.2-1.8s1.9 1.1 1.8 2.2l-12.4 109.9c-0.2 1-1.1 1.8-2.1 1.8z" fill="#eee"/>
		<circle cy="369.6" cx="305.9" r="7.5" fill="#eee"/>
		<circle cy="479.5" cx="293.5" r="7.5" fill="#eee"/>
		<path d="m305.9 371.6c-0.7 0-1.4-0.4-1.8-1.1l-43-86.9c-0.5-1-0.1-2.2 0.9-2.7s2.2-0.1 2.7 0.9l43 86.9c0.5 1 0.1 2.2-0.9 2.7-0.3 0.1-0.6 0.2-0.9 0.2z" fill="#eee"/>
		<circle cy="369.6" cx="305.9" r="7.5" fill="#eee"/>
		<circle cy="282.7" cx="262.9" r="7.5" fill="#eee"/>
		<path d="m58.5 506.3c-0.4 0-0.8-0.1-1.2-0.4-0.9-0.7-1.1-1.9-0.4-2.8l95.9-126.9c0.7-0.9 1.9-1.1 2.8-0.4s1.1 1.9 0.4 2.8l-95.9 126.9c-0.4 0.5-1 0.8-1.6 0.8z" fill="#eee"/>
		<circle cy="377.4" cx="154.4" r="7.5" fill="#eee"/>
		<circle cy="504.3" cx="58.5" r="7.5" fill="#eee"/>
		<path d="m58.5 266.5c-0.7 0-1.5-0.4-1.8-1.1-0.5-1-0.1-2.2 0.9-2.7l135.7-66c1-0.5 2.2-0.1 2.7 0.9s0.1 2.2-0.9 2.7l-135.7 66c-0.3 0.1-0.6 0.2-0.9 0.2z" fill="#eee"/>
		<circle cy="198.5" cx="194.2" r="7.5" fill="#eee"/>
		<circle cy="264.5" cx="58.5" r="7.5" fill="#eee"/>
		<path d="m293.5 481.5c-0.7 0-1.4-0.4-1.7-1-0.5-1-0.2-2.2 0.8-2.7l133.7-74.5c1-0.5 2.2-0.2 2.7 0.8s0.2 2.2-0.8 2.7l-133.7 74.5c-0.3 0.1-0.6 0.2-1 0.2z" fill="#eee"/>
		<circle cy="479.5" cx="293.5" r="7.5" fill="#eee"/>
		<circle cy="404.9" cx="427.3" r="7.5" fill="#eee"/>
		<path d="m293.5 481.5c-0.3 0-0.5-0.1-0.8-0.2l-89.8-38.6c-1-0.4-1.5-1.6-1-2.6 0.4-1 1.6-1.5 2.6-1l89.8 38.6c1 0.4 1.5 1.6 1 2.6-0.3 0.7-1 1.2-1.8 1.2z" fill="#eee"/>
		<circle cy="479.5" cx="293.5" r="7.5" fill="#eee"/>
		<circle cy="440.9" cx="203.7" r="7.5" fill="#eee"/>
		<path d="m557.2 481.5c-0.3 0-0.7-0.1-1-0.3l-129.9-74.5c-1-0.5-1.3-1.8-0.7-2.7s1.8-1.3 2.7-0.7l129.9 74.5c1 0.5 1.3 1.8 0.7 2.7-0.3 0.6-1 1-1.7 1z" fill="#eee"/>
		<circle cy="404.9" cx="427.3" r="7.5" fill="#eee"/>
		<circle cy="479.5" cx="557.2" r="7.5" fill="#eee"/>
		<path d="m427.3 406.9c-0.4 0-0.7-0.1-1-0.3-0.9-0.6-1.2-1.8-0.7-2.7l23.9-39.2c0.6-0.9 1.8-1.2 2.7-0.7 0.9 0.6 1.2 1.8 0.7 2.7l-23.9 39.3c-0.4 0.6-1.1 0.9-1.7 0.9z" fill="#eee"/>
		<circle cy="404.9" cx="427.3" r="7.5" fill="#eee"/>
		<circle cy="365.8" cx="451.2" r="7.5" fill="#eee"/>
		<path d="m194.2 200.5c-0.8 0-1.6-0.5-1.9-1.3l-25.8-74.8c-0.4-1 0.2-2.2 1.2-2.5 1-0.4 2.2 0.2 2.5 1.2l25.8 74.8c0.4 1-0.2 2.2-1.2 2.5-0.2 0-0.4 0.1-0.6 0.1z" fill="#eee"/>
		<circle cy="198.5" cx="194.2" r="7.5" fill="#eee"/>
		<circle cy="123.6" cx="168.4" r="7.5" fill="#eee"/>
		<path d="m557.2 481.5c-0.7 0-1.5-0.4-1.8-1.1-0.5-1-0.1-2.2 0.9-2.7l113.7-55c1-0.5 2.2-0.1 2.7 0.9s0.1 2.2-0.9 2.7l-113.7 54.9c-0.3 0.2-0.6 0.3-0.9 0.3z" fill="#eee"/>
		<circle cy="479.5" cx="557.2" r="7.5" fill="#eee"/>
		<circle cy="424.5" cx="670.9" r="7.5" fill="#eee"/>
		<path d="m670.9 426.5c-0.5 0-1-0.2-1.4-0.6l-41.1-39.2c-0.8-0.8-0.8-2-0.1-2.8s2-0.8 2.8-0.1l41.1 39.2c0.8 0.8 0.8 2 0.1 2.8-0.4 0.5-0.9 0.7-1.4 0.7z" fill="#eee"/>
		<circle cy="424.5" cx="670.9" r="7.5" fill="#eee"/>
		<circle cy="385.4" cx="629.8" r="7.5" fill="#eee"/>
		<path d="m427.3 462.2c-1.1 0-2-0.9-2-2v-55.2c0-1.1 0.9-2 2-2s2 0.9 2 2v55.2c0 1.1-0.9 2-2 2z" fill="#eee"/>
		<circle cy="404.9" cx="427.3" r="7.5" fill="#eee"/>
		<circle cy="460.2" cx="427.3" r="7.5" fill="#eee"/>
		<path d="m168.4 125.6c-1 0-1.9-0.7-2-1.7-0.1-1.1 0.6-2.1 1.7-2.2l94.6-11.9c1.1-0.1 2.1 0.6 2.2 1.7s-0.6 2.1-1.7 2.2l-94.6 11.9h-0.2z" fill="#eee"/>
		<circle cy="123.6" cx="168.4" r="7.5" fill="#eee"/>
		<circle cy="111.7" cx="262.9" r="7.5" fill="#eee"/>
		<path d="m168.4 125.6c-0.2 0-0.4 0-0.6-0.1-1.1-0.3-1.7-1.4-1.3-2.5l35.3-116.1c0.3-1.1 1.4-1.7 2.5-1.3 1.1 0.3 1.7 1.4 1.3 2.5l-35.3 116.1c-0.3 0.9-1.1 1.4-1.9 1.4z" fill="#eee"/>
		<circle cy="123.6" cx="168.4" r="7.5" fill="#eee"/>
		<circle cy="7.5" cx="203.7" r="7.5" fill="#eee"/>
		<path d="m263 284.7c-1.1 0-2-0.9-2-2v-171c0-1.1 0.9-2 2-2s2 0.9 2 2v171c0 1.1-0.9 2-2 2z" fill="#eee"/>
		<circle cy="111.7" cx="262.9" r="7.5" fill="#eee"/>
		<circle cy="282.7" cx="262.9" r="7.5" fill="#eee"/>
		<path d="m263 284.7c-0.7 0-1.4-0.4-1.7-1-0.5-1-0.2-2.2 0.7-2.7l89.3-51.2c1-0.5 2.2-0.2 2.7 0.7 0.5 1 0.2 2.2-0.7 2.7l-89.3 51.2c-0.4 0.2-0.7 0.3-1 0.3z" fill="#eee"/>
		<circle cy="282.7" cx="262.9" r="7.5" fill="#eee"/>
		<circle cy="231.5" cx="352.2" r="7.5" fill="#eee"/>
		<path d="m557.2 481.5c-0.4 0-0.9-0.1-1.2-0.4-0.9-0.7-1-1.9-0.4-2.8l72.6-94.1c0.7-0.9 1.9-1 2.8-0.4 0.9 0.7 1 1.9 0.4 2.8l-72.6 94.1c-0.4 0.5-1 0.8-1.6 0.8z" fill="#eee"/>
		<circle cy="385.4" cx="629.8" r="7.5" fill="#eee"/>
		<circle cy="479.5" cx="557.2" r="7.5" fill="#eee"/>
		<path d="m51.7 515.3c-0.7 0-1.5-0.4-1.8-1.1-0.5-1-0.1-2.2 0.9-2.7l152-72.4c1-0.5 2.2-0.1 2.7 0.9s0.1 2.2-0.9 2.7l-152 72.4c-0.3 0.1-0.6 0.2-0.9 0.2z" fill="#eee"/>
		<circle cy="440.9" cx="203.7" r="7.5" fill="#eee"/>
		<circle cy="513.3" cx="51.7" r="7.5" fill="#eee"/>
		<path d="m940.4 481.5h-0.4l-269.5-54.9c-1.1-0.2-1.8-1.3-1.6-2.4s1.3-1.8 2.4-1.6l269.5 54.9c1.1 0.2 1.8 1.3 1.6 2.4-0.3 0.9-1.1 1.6-2 1.6z" fill="#eee"/>
		<circle cy="424.5" cx="670.9" r="7.5" fill="#eee"/>
		<circle cy="479.5" cx="940.4" r="7.5" fill="#eee"/>
		<path d="m629.8 387.4c-0.4 0-0.8-0.1-1.1-0.3-0.9-0.6-1.2-1.8-0.6-2.8l29.1-44.2c0.6-0.9 1.8-1.2 2.8-0.6 0.9 0.6 1.2 1.8 0.6 2.8l-29.1 44.2c-0.4 0.5-1.1 0.9-1.7 0.9z" fill="#eee"/>
		<circle cy="385.4" cx="629.8" r="7.5" fill="#eee"/>
		<circle cy="341.1" cx="658.9" r="7.5" fill="#eee"/>
		<path d="m7.5 140.8c-0.6 0-1.3-0.3-1.7-0.9-0.6-0.9-0.4-2.2 0.6-2.8l196.2-131.2c0.9-0.6 2.2-0.4 2.8 0.6 0.6 0.9 0.4 2.2-0.6 2.8l-196.2 131.1c-0.3 0.2-0.7 0.4-1.1 0.4z" fill="#eee"/>
		<circle cy="7.5" cx="203.7" r="7.5" fill="#eee"/>
		<circle cy="138.8" cx="7.5" r="7.5" fill="#eee"/>
		<path d="m413.9 591.4c-0.6 0-1.2-0.3-1.6-0.8-0.7-0.9-0.5-2.1 0.4-2.8l143.3-109.9c0.9-0.7 2.1-0.5 2.8 0.4s0.5 2.1-0.4 2.8l-143.3 109.9c-0.4 0.2-0.8 0.4-1.2 0.4z" fill="#eee"/>
		<circle cy="479.5" cx="557.2" r="7.5" fill="#eee"/>
		<circle cy="589.4" cx="413.9" r="7.5" fill="#eee"/>
		<path d="m413.9 591.4c-0.5 0-1-0.2-1.3-0.5l-120.4-110c-0.8-0.7-0.9-2-0.1-2.8 0.7-0.8 2-0.9 2.8-0.1l120.3 109.9c0.8 0.7 0.9 2 0.1 2.8-0.4 0.4-0.9 0.7-1.4 0.7z" fill="#eee"/>
		<circle cy="479.5" cx="293.5" r="7.5" fill="#eee"/>
		<circle cy="589.4" cx="413.9" r="7.5" fill="#eee"/>
		<path d="m764.9 578.7c-0.7 0-1.4-0.4-1.8-1-0.5-1-0.2-2.2 0.8-2.7l175.5-97.3c1-0.5 2.2-0.2 2.7 0.8s0.2 2.2-0.8 2.7l-175.5 97.3c-0.3 0.1-0.6 0.2-0.9 0.2z" fill="#eee"/>
		<circle cy="479.5" cx="940.4" r="7.5" fill="#eee"/>
		<circle cy="576.7" cx="764.9" r="7.5" fill="#eee"/>
		<path d="m658.9 343.1c-0.2 0-0.5 0-0.7-0.1l-306.7-109.6c-1-0.4-1.6-1.5-1.2-2.6 0.4-1 1.5-1.6 2.6-1.2l306.7 109.6c1 0.4 1.6 1.5 1.2 2.6-0.3 0.8-1 1.3-1.9 1.3z" fill="#eee"/>
		<circle cy="231.5" cx="352.2" r="7.5" fill="#eee"/>
		<circle cy="341.1" cx="658.9" r="7.5" fill="#eee"/>
</svg>
